<?xml version="1.0" standalone="no"?>
<!DOCTYPE svg PUBLIC "-//W3C//DTD SVG 20010904//EN"
 "http://www.w3.org/TR/2001/REC-SVG-20010904/DTD/svg10.dtd">
<svg version="1.0" xmlns="http://www.w3.org/2000/svg"
 width="512.000000pt" height="512.000000pt" viewBox="0 0 512.000000 512.000000"
 preserveAspectRatio="xMidYMid meet">

<g transform="translate(0.000000,512.000000) scale(0.100000,-0.100000)"
fill="#000000" stroke="none">
<path d="M311 5045 c-71 -20 -110 -45 -165 -106 -78 -87 -102 -220 -62 -339
27 -79 121 -171 199 -196 l57 -18 0 -435 0 -435 60 98 60 99 0 336 0 337 57
18 c78 25 172 117 199 196 24 71 24 169 0 240 -26 74 -120 169 -191 194 -72
24 -151 28 -214 11z"/>
<path d="M4631 5045 c-71 -20 -110 -45 -165 -106 -78 -87 -102 -220 -62 -339
27 -79 121 -171 199 -196 l57 -18 0 -337 0 -336 60 -99 60 -98 0 435 0 435 57
18 c45 14 70 32 118 80 73 72 99 135 99 236 0 101 -26 164 -98 236 -43 43 -76
66 -111 78 -72 24 -151 28 -214 11z"/>
<path d="M2360 4289 c-830 -90 -1521 -658 -1719 -1411 -53 -202 -56 -239 -56
-813 l0 -530 27 -57 c37 -79 98 -142 177 -181 l66 -32 1705 0 1705 0 66 32
c79 39 140 102 177 181 l27 57 3 470 c4 590 -6 709 -79 948 -183 598 -700
1088 -1338 1268 -225 63 -545 92 -761 68z m-680 -1060 c187 -83 233 -328 88
-476 -183 -186 -501 -55 -502 207 0 214 218 355 414 269z m2000 0 c187 -83
233 -328 88 -476 -183 -186 -501 -55 -502 207 0 214 218 355 414 269z m-510
-864 c76 -39 78 -133 6 -278 -91 -186 -252 -321 -446 -373 -89 -23 -254 -23
-340 1 -198 55 -356 186 -446 371 -70 143 -70 232 0 275 29 18 61 19 614 19
502 0 587 -2 612 -15z"/>
</g>
</svg>
